<mxfile host="app.diagrams.net" modified="2022-01-17T23:42:05.296Z" agent="5.0 (Windows NT 6.2; Win64; x64) AppleWebKit/537.36 (KHTML, like Gecko) Chrome/97.0.4692.71 Safari/537.36" etag="XAebXyZG6CNjVPSO4uok" version="16.2.7" type="github">
  <diagram id="5_iLt0DSXDYqJeTZ-54R" name="Page-1">
    <mxGraphModel dx="1695" dy="1619" grid="0" gridSize="10" guides="1" tooltips="1" connect="1" arrows="1" fold="1" page="1" pageScale="1" pageWidth="827" pageHeight="1169" math="0" shadow="0">
      <root>
        <mxCell id="0" />
        <mxCell id="1" parent="0" />
        <mxCell id="GtpcDsKAEs1PKxtvMYk4-5" value="" style="edgeStyle=orthogonalEdgeStyle;rounded=0;orthogonalLoop=1;jettySize=auto;html=1;fontFamily=Garamond;fontSize=13;" parent="1" source="GtpcDsKAEs1PKxtvMYk4-1" edge="1">
          <mxGeometry relative="1" as="geometry">
            <mxPoint x="130" y="50" as="targetPoint" />
          </mxGeometry>
        </mxCell>
        <mxCell id="GtpcDsKAEs1PKxtvMYk4-1" value="INICIO&lt;div style=&quot;text-align: justify&quot;&gt;&lt;/div&gt;" style="ellipse;whiteSpace=wrap;html=1;labelBackgroundColor=none;labelBorderColor=none;fontStyle=1;horizontal=1;fillColor=#66FFFF;strokeWidth=2;" parent="1" vertex="1">
          <mxGeometry width="80" height="60" as="geometry" />
        </mxCell>
        <mxCell id="GtpcDsKAEs1PKxtvMYk4-9" value="" style="edgeStyle=orthogonalEdgeStyle;rounded=0;orthogonalLoop=1;jettySize=auto;html=1;fontFamily=Garamond;fontSize=13;" parent="1" edge="1">
          <mxGeometry relative="1" as="geometry">
            <mxPoint x="270" y="50" as="sourcePoint" />
            <mxPoint x="320" y="50" as="targetPoint" />
          </mxGeometry>
        </mxCell>
        <mxCell id="GtpcDsKAEs1PKxtvMYk4-11" value="" style="edgeStyle=orthogonalEdgeStyle;rounded=0;orthogonalLoop=1;jettySize=auto;html=1;fontFamily=Garamond;fontSize=13;" parent="1" edge="1">
          <mxGeometry relative="1" as="geometry">
            <mxPoint x="460" y="50" as="sourcePoint" />
            <mxPoint x="495" y="50" as="targetPoint" />
          </mxGeometry>
        </mxCell>
        <mxCell id="GtpcDsKAEs1PKxtvMYk4-13" value="" style="edgeStyle=orthogonalEdgeStyle;rounded=0;orthogonalLoop=1;jettySize=auto;html=1;fontFamily=Garamond;fontSize=13;" parent="1" source="GtpcDsKAEs1PKxtvMYk4-10" edge="1">
          <mxGeometry relative="1" as="geometry">
            <mxPoint x="675" y="50" as="targetPoint" />
          </mxGeometry>
        </mxCell>
        <mxCell id="GtpcDsKAEs1PKxtvMYk4-10" value="Se &amp;lt; data de hoje" style="rhombus;whiteSpace=wrap;html=1;fontSize=14;fontFamily=Courier New;labelBackgroundColor=none;fontStyle=5;fillColor=#3333FF;fontColor=#FFFFFF;strokeWidth=2;gradientColor=#ffffff;gradientDirection=radial;" parent="1" vertex="1">
          <mxGeometry x="490" y="-2.5" width="130" height="105" as="geometry" />
        </mxCell>
        <mxCell id="GtpcDsKAEs1PKxtvMYk4-14" value="SIM" style="text;html=1;align=center;verticalAlign=middle;resizable=0;points=[];autosize=1;strokeColor=none;fillColor=none;fontSize=13;fontFamily=Garamond;fontStyle=1" parent="1" vertex="1">
          <mxGeometry x="630" y="20" width="40" height="20" as="geometry" />
        </mxCell>
        <mxCell id="GtpcDsKAEs1PKxtvMYk4-15" value="" style="endArrow=classic;html=1;rounded=0;fontFamily=Garamond;fontSize=13;" parent="1" edge="1">
          <mxGeometry width="50" height="50" relative="1" as="geometry">
            <mxPoint x="555" y="110" as="sourcePoint" />
            <mxPoint x="520" y="160" as="targetPoint" />
            <Array as="points">
              <mxPoint x="555" y="160" />
            </Array>
          </mxGeometry>
        </mxCell>
        <mxCell id="GtpcDsKAEs1PKxtvMYk4-16" value="NÃO" style="text;html=1;align=center;verticalAlign=middle;resizable=0;points=[];autosize=1;strokeColor=none;fillColor=none;fontSize=13;fontFamily=Garamond;fontStyle=1" parent="1" vertex="1">
          <mxGeometry x="555" y="130" width="50" height="20" as="geometry" />
        </mxCell>
        <mxCell id="GtpcDsKAEs1PKxtvMYk4-17" value="Data Inválida&lt;br style=&quot;font-size: 12px&quot;&gt;Insira &lt;br&gt;outra data" style="shape=display;whiteSpace=wrap;html=1;labelBackgroundColor=none;fontFamily=Courier New;fontSize=12;strokeWidth=2;fillColor=#9999FF;fontStyle=1" parent="1" vertex="1">
          <mxGeometry x="680" y="10" width="130" height="70" as="geometry" />
        </mxCell>
        <mxCell id="GtpcDsKAEs1PKxtvMYk4-19" value="Data prevista &lt;br&gt;do evento" style="shape=display;whiteSpace=wrap;html=1;labelBackgroundColor=none;fontFamily=Courier New;fontSize=12;strokeWidth=2;fillColor=#9999FF;fontStyle=1" parent="1" vertex="1">
          <mxGeometry x="130" y="15" width="140" height="70" as="geometry" />
        </mxCell>
        <mxCell id="GtpcDsKAEs1PKxtvMYk4-22" value="" style="endArrow=classic;html=1;rounded=0;fontFamily=Garamond;fontSize=13;" parent="1" edge="1">
          <mxGeometry width="50" height="50" relative="1" as="geometry">
            <mxPoint x="739.5" as="sourcePoint" />
            <mxPoint x="200" as="targetPoint" />
            <Array as="points">
              <mxPoint x="739.5" y="-31" />
              <mxPoint x="200" y="-30" />
            </Array>
          </mxGeometry>
        </mxCell>
        <mxCell id="GtpcDsKAEs1PKxtvMYk4-27" value="" style="edgeStyle=orthogonalEdgeStyle;rounded=0;orthogonalLoop=1;jettySize=auto;html=1;fontFamily=Garamond;fontSize=13;" parent="1" source="GtpcDsKAEs1PKxtvMYk4-25" edge="1">
          <mxGeometry relative="1" as="geometry">
            <mxPoint x="320" y="160" as="targetPoint" />
          </mxGeometry>
        </mxCell>
        <mxCell id="GtpcDsKAEs1PKxtvMYk4-25" value="&lt;div style=&quot;font-size: 12px&quot;&gt;insira seus dados para o&amp;nbsp;&lt;span&gt;cadastro&amp;nbsp;&lt;/span&gt;&lt;/div&gt;&lt;div style=&quot;font-size: 12px&quot;&gt;do evento&lt;/div&gt;" style="shape=display;whiteSpace=wrap;html=1;labelBackgroundColor=none;fontFamily=Courier New;fontSize=12;direction=west;align=center;strokeWidth=2;fillColor=#9999FF;fontStyle=1" parent="1" vertex="1">
          <mxGeometry x="360" y="120" width="150" height="80" as="geometry" />
        </mxCell>
        <mxCell id="GtpcDsKAEs1PKxtvMYk4-29" value="" style="edgeStyle=orthogonalEdgeStyle;rounded=0;orthogonalLoop=1;jettySize=auto;html=1;fontFamily=Garamond;fontSize=13;" parent="1" source="GtpcDsKAEs1PKxtvMYk4-26" edge="1">
          <mxGeometry relative="1" as="geometry">
            <mxPoint x="160" y="160" as="targetPoint" />
          </mxGeometry>
        </mxCell>
        <mxCell id="GtpcDsKAEs1PKxtvMYk4-28" value="Idade &amp;lt; 18" style="rhombus;whiteSpace=wrap;html=1;fontSize=14;fontFamily=Courier New;labelBackgroundColor=none;fontStyle=5;fillColor=#3333FF;fontColor=#FFFFFF;strokeWidth=2;gradientColor=#ffffff;gradientDirection=radial;" parent="1" vertex="1">
          <mxGeometry x="20" y="100" width="130" height="120" as="geometry" />
        </mxCell>
        <mxCell id="GtpcDsKAEs1PKxtvMYk4-30" value="" style="endArrow=classic;html=1;rounded=0;fontFamily=Garamond;fontSize=13;" parent="1" edge="1">
          <mxGeometry width="50" height="50" relative="1" as="geometry">
            <mxPoint x="10" y="160" as="sourcePoint" />
            <mxPoint x="40" y="260" as="targetPoint" />
            <Array as="points">
              <mxPoint x="20" y="160" />
              <mxPoint x="10" y="160" />
              <mxPoint x="10" y="200" />
              <mxPoint x="40" y="200" />
            </Array>
          </mxGeometry>
        </mxCell>
        <mxCell id="GtpcDsKAEs1PKxtvMYk4-32" value="Não é permitido &lt;br style=&quot;font-size: 12px;&quot;&gt;o cadastro &lt;br style=&quot;font-size: 12px;&quot;&gt;de menores &lt;br style=&quot;font-size: 12px;&quot;&gt;de 18 anos" style="shape=display;whiteSpace=wrap;html=1;labelBackgroundColor=none;fontFamily=Courier New;fontSize=12;direction=south;align=center;strokeWidth=2;fillColor=#9999FF;fontStyle=1" parent="1" vertex="1">
          <mxGeometry y="260" width="80" height="140" as="geometry" />
        </mxCell>
        <mxCell id="GtpcDsKAEs1PKxtvMYk4-33" value="SIM" style="text;html=1;align=center;verticalAlign=middle;resizable=0;points=[];autosize=1;strokeColor=none;fillColor=none;fontSize=13;fontFamily=Garamond;fontStyle=1" parent="1" vertex="1">
          <mxGeometry y="230" width="40" height="20" as="geometry" />
        </mxCell>
        <mxCell id="GtpcDsKAEs1PKxtvMYk4-34" value="" style="endArrow=classic;html=1;rounded=0;fontFamily=Garamond;fontSize=13;exitX=0.5;exitY=1;exitDx=0;exitDy=0;" parent="1" source="GtpcDsKAEs1PKxtvMYk4-28" edge="1">
          <mxGeometry width="50" height="50" relative="1" as="geometry">
            <mxPoint x="80" y="260" as="sourcePoint" />
            <mxPoint x="160" y="280" as="targetPoint" />
            <Array as="points">
              <mxPoint x="85" y="260" />
              <mxPoint x="85" y="280" />
            </Array>
          </mxGeometry>
        </mxCell>
        <mxCell id="GtpcDsKAEs1PKxtvMYk4-35" value="NÃO" style="text;html=1;align=center;verticalAlign=middle;resizable=0;points=[];autosize=1;strokeColor=none;fillColor=none;fontSize=13;fontFamily=Garamond;fontStyle=1" parent="1" vertex="1">
          <mxGeometry x="95" y="230" width="50" height="20" as="geometry" />
        </mxCell>
        <mxCell id="GtpcDsKAEs1PKxtvMYk4-36" value="&lt;div style=&quot;font-size: 12px;&quot;&gt;Insira os participantes&amp;nbsp;&lt;/div&gt;&lt;div style=&quot;font-size: 12px;&quot;&gt;e os palestrantes&amp;nbsp;&lt;/div&gt;&lt;div style=&quot;font-size: 12px;&quot;&gt;do evento&lt;/div&gt;" style="shape=display;whiteSpace=wrap;html=1;labelBackgroundColor=none;fontFamily=Courier New;fontSize=12;direction=east;align=center;strokeWidth=2;fillColor=#9999FF;fontStyle=1" parent="1" vertex="1">
          <mxGeometry x="160" y="230" width="160" height="90" as="geometry" />
        </mxCell>
        <mxCell id="GtpcDsKAEs1PKxtvMYk4-41" value="" style="edgeStyle=orthogonalEdgeStyle;rounded=0;orthogonalLoop=1;jettySize=auto;html=1;fontFamily=Garamond;fontSize=13;" parent="1" source="GtpcDsKAEs1PKxtvMYk4-37" edge="1">
          <mxGeometry relative="1" as="geometry">
            <mxPoint x="570" y="275" as="targetPoint" />
          </mxGeometry>
        </mxCell>
        <mxCell id="GtpcDsKAEs1PKxtvMYk4-37" value="Contar&amp;nbsp; número de participantes inseridos" style="whiteSpace=wrap;html=1;fontSize=13;fontFamily=Garamond;labelBackgroundColor=none;fontStyle=1;strokeWidth=2;fillColor=#dae8fc;strokeColor=#6c8ebf;" parent="1" vertex="1">
          <mxGeometry x="380" y="235" width="130" height="80" as="geometry" />
        </mxCell>
        <mxCell id="GtpcDsKAEs1PKxtvMYk4-39" value="" style="endArrow=classic;html=1;rounded=0;fontFamily=Garamond;fontSize=13;" parent="1" edge="1">
          <mxGeometry width="50" height="50" relative="1" as="geometry">
            <mxPoint x="321" y="276" as="sourcePoint" />
            <mxPoint x="370" y="276" as="targetPoint" />
          </mxGeometry>
        </mxCell>
        <mxCell id="GtpcDsKAEs1PKxtvMYk4-45" value="" style="edgeStyle=orthogonalEdgeStyle;rounded=0;orthogonalLoop=1;jettySize=auto;html=1;fontFamily=Garamond;fontSize=13;" parent="1" source="GtpcDsKAEs1PKxtvMYk4-40" edge="1">
          <mxGeometry relative="1" as="geometry">
            <mxPoint x="645" y="180" as="targetPoint" />
          </mxGeometry>
        </mxCell>
        <mxCell id="GtpcDsKAEs1PKxtvMYk4-48" value="" style="edgeStyle=orthogonalEdgeStyle;rounded=0;orthogonalLoop=1;jettySize=auto;html=1;fontFamily=Garamond;fontSize=13;entryX=0;entryY=0.5;entryDx=0;entryDy=0;entryPerimeter=0;" parent="1" source="GtpcDsKAEs1PKxtvMYk4-40" target="GtpcDsKAEs1PKxtvMYk4-50" edge="1">
          <mxGeometry relative="1" as="geometry">
            <mxPoint x="645" y="400" as="targetPoint" />
          </mxGeometry>
        </mxCell>
        <mxCell id="GtpcDsKAEs1PKxtvMYk4-40" value="&amp;lt; 100" style="rhombus;whiteSpace=wrap;html=1;fontSize=14;fontFamily=Courier New;labelBackgroundColor=none;fontStyle=5;fillColor=#3333FF;fontColor=#FFFFFF;strokeWidth=2;gradientColor=#ffffff;gradientDirection=radial;" parent="1" vertex="1">
          <mxGeometry x="580" y="215" width="130" height="120" as="geometry" />
        </mxCell>
        <mxCell id="GtpcDsKAEs1PKxtvMYk4-44" value="FIM" style="ellipse;whiteSpace=wrap;html=1;fontSize=13;fontFamily=Garamond;labelBackgroundColor=none;fillColor=#3399FF;strokeWidth=2;fontStyle=1" parent="1" vertex="1">
          <mxGeometry x="610" y="110" width="120" height="60" as="geometry" />
        </mxCell>
        <mxCell id="GtpcDsKAEs1PKxtvMYk4-46" value="SIM" style="text;html=1;align=center;verticalAlign=middle;resizable=0;points=[];autosize=1;strokeColor=none;fillColor=none;fontSize=13;fontFamily=Garamond;fontStyle=1" parent="1" vertex="1">
          <mxGeometry x="650" y="190" width="40" height="20" as="geometry" />
        </mxCell>
        <mxCell id="GtpcDsKAEs1PKxtvMYk4-52" value="" style="edgeStyle=orthogonalEdgeStyle;rounded=0;orthogonalLoop=1;jettySize=auto;html=1;fontFamily=Garamond;fontSize=13;" parent="1" source="GtpcDsKAEs1PKxtvMYk4-50" target="GtpcDsKAEs1PKxtvMYk4-51" edge="1">
          <mxGeometry relative="1" as="geometry" />
        </mxCell>
        <mxCell id="GtpcDsKAEs1PKxtvMYk4-50" value="Não é permitido &lt;br style=&quot;font-size: 12px;&quot;&gt;o cadastro &lt;br style=&quot;font-size: 12px;&quot;&gt;mais de 100&lt;br style=&quot;font-size: 12px;&quot;&gt;&amp;nbsp;participantes" style="shape=display;whiteSpace=wrap;html=1;labelBackgroundColor=none;fontFamily=Courier New;fontSize=12;direction=west;align=center;strokeWidth=2;fillColor=#9999FF;fontStyle=1" parent="1" vertex="1">
          <mxGeometry x="450" y="360" width="160" height="80" as="geometry" />
        </mxCell>
        <mxCell id="GtpcDsKAEs1PKxtvMYk4-51" value="FIM" style="ellipse;whiteSpace=wrap;html=1;fontSize=13;fontFamily=Garamond;labelBackgroundColor=none;fillColor=#3399FF;strokeWidth=2;fontStyle=1" parent="1" vertex="1">
          <mxGeometry x="260" y="370" width="120" height="60" as="geometry" />
        </mxCell>
        <mxCell id="GtpcDsKAEs1PKxtvMYk4-53" value="NÃO" style="text;html=1;align=center;verticalAlign=middle;resizable=0;points=[];autosize=1;strokeColor=none;fillColor=none;fontSize=13;fontFamily=Garamond;fontStyle=1" parent="1" vertex="1">
          <mxGeometry x="645" y="350" width="50" height="20" as="geometry" />
        </mxCell>
        <mxCell id="GtpcDsKAEs1PKxtvMYk4-21" value="Data" style="shape=parallelogram;perimeter=parallelogramPerimeter;whiteSpace=wrap;html=1;fixedSize=1;labelBackgroundColor=none;fontFamily=Times New Roman;fontSize=16;fontStyle=3;rotation=0;fillColor=#B266FF;gradientColor=#ffffff;" parent="1" vertex="1">
          <mxGeometry x="330" width="140" height="90" as="geometry" />
        </mxCell>
        <mxCell id="GtpcDsKAEs1PKxtvMYk4-26" value="Nome&lt;br style=&quot;font-size: 16px;&quot;&gt;Idade&lt;br style=&quot;font-size: 16px;&quot;&gt;Email" style="shape=parallelogram;perimeter=parallelogramPerimeter;whiteSpace=wrap;html=1;fixedSize=1;fontSize=16;fontFamily=Times New Roman;labelBackgroundColor=none;fontStyle=3;rotation=0;fillColor=#B266FF;gradientColor=#ffffff;" parent="1" vertex="1">
          <mxGeometry x="200" y="120" width="120" height="80" as="geometry" />
        </mxCell>
      </root>
    </mxGraphModel>
  </diagram>
</mxfile>
